<svg xmlns="http://www.w3.org/2000/svg" width="512" height="512" viewBox="0 0 512 512" role="img" aria-label="Football Architect symbol"><g fill="none" stroke-linecap="round" stroke-linejoin="round">
<g stroke="#087C70" stroke-width="16">
<path d="M177 135A180 180 0 0 0 93 215M335 135A180 180 0 0 1 419 215M93 385A180 180 0 0 0 177 463M335 463A180 180 0 0 0 419 385"/>
<path d="M106 246H145V357H106M406 246H367V357H406"/>
<path d="M256 191V435"/><circle cx="256" cy="304" r="55"/>
</g>
<circle cx="256" cy="304" r="11" fill="#087C70" stroke="none"/>
<g stroke="#17262B" stroke-width="28">
<path d="M256 44V68" stroke-width="20"/><circle cx="256" cy="104" r="31" stroke-width="22"/>
<path d="M237 133L103 437M275 133L409 437" stroke-width="32"/>
</g></g></svg>